<?xml-stylesheet type="text/css" href="index.css"?>
<svg xmlns="http://www.w3.org/2000/svg" width="300" height="300"
     viewBox="0 0 300 300">
    <rect height="300" width="300" fill="skyblue" stroke="steelblue" stroke-width="5"/>
    <g style="fill:red;  stroke-width:1.5; fill-opacity: 0.75; stroke : rgb(0,0,0);">

        <circle id="my-circle" cx="150" cy="150" r="70" clip-path="url(#left-fourth)"/>

        <rect x="80" y="150" width="70" height="70" clip-path="url(#top-diagonal)"/>
        <line x1="80" y1="150" x2="150" y2="220"/>
        <rect x="150" y="150" width="70" height="70"/>
        <!-- X -->
        <line x1="150" y1="5" x2="150" y2="295" stroke-width="1.5" stroke="rgb(0,0,0)"/>
        <line x1="150" y1="5" x2="155" y2="15" stroke-width="1.5" stroke="rgb(0,0,0)"/>
        <line x1="150" y1="5" x2="145" y2="15" stroke-width="1.5" stroke="rgb(0,0,0)"/>
        <line x1="220" y1="146"
              x2="220" y2="154"
              stroke-width="1.5" stroke="rgb(0,0,0)"/>
        <line x1="80" y1="146"
              x2="80" y2="154"
              stroke-width="1.5" stroke="rgb(0,0,0)"/>
        <!-- Y -->
        <line x1="295" y1="150" x2="5" y2="150" stroke-width="1.5" stroke="rgb(0,0,0)"/>
        <line x1="295" y1="150" x2="285" y2="155" stroke-width="1.5" stroke="rgb(0,0,0)"/>
        <line x1="295" y1="150" x2="285" y2="145" stroke-width="1.5" stroke="rgb(0,0,0)"/>
        <line x1="146" y1="80"
              x2="154" y2="80"
              stroke-width="1.5" stroke="rgb(0,0,0)"/>
        <line x1="146" y1="220"
              x2="154" y2="220"
              stroke-width="1.5" stroke="rgb(0,0,0)"/>


        <!-- circle -->
        <defs>
            <clipPath id="left-fourth">
                <rect x="0" y="0" width="150" height="150"/>
            </clipPath>
            <clipPath id="top-diagonal">
                <polygon points="80,150,150,220,150,150"/>
            </clipPath>
        </defs>


    </g>


</svg>